<?xml version="1.0" encoding="UTF-8"?>
<svg xmlns="http://www.w3.org/2000/svg" width="1024" height="1024" viewBox="0 0 1024 1024">
  <defs>
    <linearGradient id="bg" x1="150" y1="110" x2="870" y2="930" gradientUnits="userSpaceOnUse">
      <stop stop-color="#202A30"/>
      <stop offset="1" stop-color="#10161A"/>
    </linearGradient>
    <linearGradient id="gold" x1="340" y1="260" x2="700" y2="780" gradientUnits="userSpaceOnUse">
      <stop stop-color="#F4C564"/>
      <stop offset="1" stop-color="#D79B32"/>
    </linearGradient>
    <filter id="shadow" x="-30%" y="-30%" width="160%" height="160%">
      <feDropShadow dx="0" dy="24" stdDeviation="24" flood-color="#000000" flood-opacity="0.34"/>
    </filter>
  </defs>
  <rect x="50" y="50" width="924" height="924" rx="216" fill="url(#bg)"/>
  <rect x="51" y="51" width="922" height="922" rx="215" fill="none" stroke="#3A474F" stroke-width="2"/>
  <g filter="url(#shadow)" stroke="url(#gold)" stroke-width="30" stroke-linejoin="round">
    <path d="M512 245 700 353 700 570 512 678 324 570 324 353Z" fill="#172027"/>
    <path d="M512 454 669 545 669 726 512 817 355 726 355 545Z" fill="#172027"/>
  </g>
  <path d="M512 356 603 409 603 514 512 567 421 514 421 409Z" fill="url(#gold)"/>
  <circle cx="512" cy="461" r="32" fill="#F7F8F6"/>
  <path d="M512 493V616" stroke="#F7F8F6" stroke-width="28" stroke-linecap="round"/>
  <circle cx="512" cy="661" r="16" fill="#F7F8F6"/>
</svg>
